<svg width="10" height="10" viewBox="0 0 10 10" fill="none" xmlns="http://www.w3.org/2000/svg">
<path d="M5 0C6.32608 0 7.59785 0.526784 8.53553 1.46447C9.47322 2.40215 10 3.67392 10 5C10 6.32608 9.47322 7.59785 8.53553 8.53553C7.59785 9.47322 6.32608 10 5 10C3.67392 10 2.40215 9.47322 1.46447 8.53553C0.526784 7.59785 0 6.32608 0 5C0 3.67392 0.526784 2.40215 1.46447 1.46447C2.40215 0.526784 3.67392 0 5 0V0ZM5 0.625C3.83968 0.625 2.72688 1.08594 1.90641 1.90641C1.08594 2.72688 0.625 3.83968 0.625 5C0.625 6.16032 1.08594 7.27312 1.90641 8.09359C2.72688 8.91406 3.83968 9.375 5 9.375C6.16032 9.375 7.27312 8.91406 8.09359 8.09359C8.91406 7.27312 9.375 6.16032 9.375 5C9.375 3.83968 8.91406 2.72688 8.09359 1.90641C7.27312 1.08594 6.16032 0.625 5 0.625V0.625ZM7.79437 3.52875C7.84614 3.58046 7.87812 3.64869 7.88475 3.72156C7.89137 3.79442 7.87222 3.86731 7.83063 3.9275L7.79437 3.97125L4.60375 7.16125C4.55204 7.21302 4.48381 7.245 4.41094 7.25162C4.33808 7.25825 4.26519 7.23909 4.205 7.1975L4.16187 7.16125L2.27875 5.27875C2.22338 5.22363 2.19067 5.14978 2.18706 5.07174C2.18345 4.9937 2.2092 4.91713 2.25923 4.85714C2.30927 4.79714 2.37997 4.75806 2.45739 4.7476C2.53481 4.73714 2.61334 4.75606 2.6775 4.80063L2.72125 4.83625L4.3825 6.49813L7.3525 3.52937C7.4111 3.47079 7.49057 3.43788 7.57344 3.43788C7.6563 3.43788 7.73577 3.47079 7.79437 3.52937V3.52875Z" fill="#05A1A3"/>
</svg>
